<svg xmlns="http://www.w3.org/2000/svg" xmlns:xlink="http://www.w3.org/1999/xlink" width="5120" zoomAndPan="magnify" viewBox="0 0 3840 2100.000016" height="2800" preserveAspectRatio="xMidYMid meet" version="1.0"><defs><clipPath id="541a102ae5"><path d="M 0.914062 0 L 3839.085938 0 L 3839.085938 2099 L 0.914062 2099 Z M 0.914062 0 " clip-rule="nonzero"/></clipPath><clipPath id="6f831c313c"><path d="M 1526 0 L 3839.085938 0 L 3839.085938 2099 L 1526 2099 Z M 1526 0 " clip-rule="nonzero"/></clipPath><clipPath id="cf3aa94226"><path d="M 1526.183594 2099 L 2980.652344 0 L 3839.085938 0 L 3839.085938 2099 Z M 1526.183594 2099 " clip-rule="evenodd"/></clipPath><clipPath id="f537df4615"><path d="M 1526.183594 2099 L 2980.652344 0 L 3839.085938 0 L 3839.085938 2099 Z M 1526.183594 2099 " clip-rule="evenodd"/></clipPath><clipPath id="8064c05693"><path d="M 0.914062 260 L 3839.085938 260 L 3839.085938 2099 L 0.914062 2099 Z M 0.914062 260 " clip-rule="nonzero"/></clipPath><clipPath id="e333459e9a"><path d="M -1863.746094 114.078125 L 4793.234375 1704.121094 L 4423.5 3252.070312 L -2233.480469 1662.023438 Z M -1863.746094 114.078125 " clip-rule="nonzero"/></clipPath><clipPath id="dc0be45a93"><path d="M -1863.746094 114.078125 L 4793.234375 1704.121094 L 4423.5 3252.070312 L -2233.480469 1662.023438 Z M -1863.746094 114.078125 " clip-rule="nonzero"/></clipPath></defs><g clip-path="url(#541a102ae5)"><path fill="#ffffff" d="M 0.914062 0 L 3839.085938 0 L 3839.085938 2099 L 0.914062 2099 Z M 0.914062 0 " fill-opacity="1" fill-rule="nonzero"/><path fill="#ffffff" d="M 0.914062 0 L 3839.085938 0 L 3839.085938 2099 L 0.914062 2099 Z M 0.914062 0 " fill-opacity="1" fill-rule="nonzero"/></g><g clip-path="url(#6f831c313c)"><g clip-path="url(#cf3aa94226)"><g clip-path="url(#f537df4615)"><path fill="#ffd600" d="M 3221.042969 -167.109375 C 3031.875 481.855469 2879.6875 931.417969 2685.996094 1410.367188 C 2462.558594 1963.847656 2271.148438 2334.882812 2000.277344 2739.960938 C 1707.128906 3177.175781 1436.84375 3492.046875 964.375 3943.945312 C 773.949219 4126.128906 547.59375 4334.003906 61.589844 4772.75 C -420.570312 5208.121094 -708.074219 5484.628906 -867.878906 5668.394531 C -1152.65625 5994.363281 -1369.898438 6375.441406 -1502.710938 6781.792969 L -1527.828125 6857.269531 L -769.40625 7384.3125 L -10.832031 7912.222656 L 2491.324219 4301.265625 L 4993.125 690.8125 L 4151.351562 107.519531 C 3688.121094 -213.46875 3309.734375 -474.910156 3309.890625 -474.046875 C 3309.691406 -472.671875 3270.027344 -334.785156 3221.042969 -167.109375 Z M 3221.042969 -167.109375 " fill-opacity="1" fill-rule="nonzero"/></g></g></g><g clip-path="url(#8064c05693)"><g clip-path="url(#e333459e9a)"><g clip-path="url(#dc0be45a93)"><path fill="#03a9f4" d="M 4536.722656 1724.679688 C 4013.433594 1770.777344 3644.964844 1787.40625 3243.507812 1782.269531 C 2779.691406 1776.621094 2457.019531 1742.691406 2087.28125 1660.824219 C 1687.988281 1571.898438 1383.734375 1465.011719 923.21875 1250.375 C 737.578125 1163.882812 523.191406 1058.621094 68.382812 830.472656 C -382.898438 604.160156 -664.230469 473.980469 -842.378906 410.105469 C -1158.757812 295.855469 -1495.984375 246.054688 -1827.699219 264.519531 L -1889.4375 267.625 L -2057.117188 965.492188 L -2225.378906 1663.71875 L 1095.253906 2456.863281 L 4415.414062 3249.898438 L 4600.3125 2475.804688 C 4702.058594 2049.816406 4784.625 1702.066406 4784.042969 1702.421875 C 4782.992188 1702.667969 4671.957031 1712.84375 4536.722656 1724.679688 Z M 4536.722656 1724.679688 " fill-opacity="1" fill-rule="nonzero"/></g></g></g></svg>