<svg width="459" height="171" viewBox="0 0 459 171" fill="none" xmlns="http://www.w3.org/2000/svg">
<mask id="mask0_17_777" style="mask-type:luminance" maskUnits="userSpaceOnUse" x="33" y="0" width="169" height="150">
<path d="M33.3334 0.333374H201.333V149.667H33.3334V0.333374Z" fill="white"/>
</mask>
<g mask="url(#mask0_17_777)">
<mask id="mask1_17_777" style="mask-type:luminance" maskUnits="userSpaceOnUse" x="6" y="-30" width="220" height="222">
<path d="M84.3594 191.214L6.50525 47.6355L148.078 -29.1354L225.938 114.443L84.3594 191.214Z" fill="white"/>
</mask>
<g mask="url(#mask1_17_777)">
<mask id="mask2_17_777" style="mask-type:luminance" maskUnits="userSpaceOnUse" x="6" y="-30" width="220" height="222">
<path d="M6.45837 47.5521L84.3125 191.13L225.891 114.359L148.037 -29.2188L6.45837 47.5521Z" fill="white"/>
</mask>
<g mask="url(#mask2_17_777)">
<path d="M136.526 137.875C135.979 138.078 134.198 138.953 131.214 140.193C128.188 141.365 123.958 142.911 118.448 143.833C112.984 144.823 106.276 145.271 98.9323 144.182C91.5886 143.099 83.5678 140.599 75.8386 135.87C71.9636 133.563 68.2084 130.625 64.7344 127.156C61.2605 123.693 58.1042 119.771 55.448 115.396C52.8282 111.089 50.6771 106.25 49.099 101.094C47.599 95.9011 46.6771 90.3959 46.6407 84.7865C46.4896 73.6042 49.3959 62.1719 55.5209 52.1875C58.5313 47.1771 62.4011 42.5469 66.8125 38.5573C68.9948 36.5313 71.4115 34.75 73.7917 33.0834C76.2136 31.4896 78.7813 30 81.474 28.7292C86.7396 26.1563 92.5521 24.4115 98.4271 23.4792C104.302 22.5469 110.281 22.4948 116.068 23.2969C127.604 24.8334 138.505 29.7136 147.162 36.849C151.526 40.3959 155.281 44.5521 158.344 48.9896C161.37 53.3594 163.849 57.9271 165.635 62.7761C167.49 67.5886 168.578 72.5365 169.219 77.3542C169.787 82.2084 169.792 86.8959 169.276 91.3073C168.281 100.198 165.516 108.083 162.037 114.474C158.557 120.865 154.328 125.88 150.573 129.51C148.677 131.38 146.844 132.844 145.26 134.078C143.604 135.354 142.234 136.286 141.042 137.026C139.844 137.766 138.943 138.349 138.292 138.703C137.635 139.057 137.349 139.214 137.349 139.214C144.656 141.448 152.995 142.464 161.797 141.724C170.594 140.99 179.818 138.615 188.912 134.438C194.37 124.25 197.844 113.354 199.323 102.234C200.797 91.1094 200.198 79.7917 197.667 69.0625C196.417 63.6406 194.615 58.4167 192.495 53.4688C191.417 50.9584 190.188 48.5261 188.932 46.2031C187.672 43.8802 186.229 41.5677 184.755 39.3646C178.849 30.5521 171.245 22.7552 162.589 16.6563C145.344 4.42189 124.537 -0.718729 104.599 1.45315C94.5209 2.60419 84.8334 5.51044 76.2292 9.89065C71.9844 12.099 67.8959 14.599 64.1146 17.4948C60.3386 20.3906 56.823 23.6042 53.5834 27.1459C47.1719 34.1927 42.2032 42.3281 38.8282 50.8229C35.4532 59.3125 33.7605 68.3073 33.6146 77.2084C33.5365 86.0729 35.0886 94.9896 38.0209 103.161C41.0625 111.37 45.4011 118.682 50.8907 124.995C56.3803 131.313 63.0573 136.703 70.198 140.526C77.3803 144.422 85.1042 146.896 92.8542 147.859C100.641 148.891 108.49 148.479 116 146.755C123.438 145.068 130.5 141.99 136.526 137.875Z" fill="white"/>
</g>
</g>
</g>
<mask id="mask3_17_777" style="mask-type:luminance" maskUnits="userSpaceOnUse" x="69" y="36" width="95" height="82">
<path d="M69.3334 36.3334H164V117.667H69.3334V36.3334Z" fill="white"/>
</mask>
<g mask="url(#mask3_17_777)">
<mask id="mask4_17_777" style="mask-type:luminance" maskUnits="userSpaceOnUse" x="6" y="-30" width="220" height="222">
<path d="M84.3594 191.214L6.50525 47.6355L148.078 -29.1354L225.938 114.443L84.3594 191.214Z" fill="white"/>
</mask>
<g mask="url(#mask4_17_777)">
<mask id="mask5_17_777" style="mask-type:luminance" maskUnits="userSpaceOnUse" x="6" y="-30" width="220" height="222">
<path d="M6.45837 47.5521L84.3125 191.13L225.891 114.359L148.037 -29.2188L6.45837 47.5521Z" fill="white"/>
</mask>
<g mask="url(#mask5_17_777)">
<path d="M119.224 105.964C118.964 106.01 118.203 106.328 117.036 106.776C115.797 107.26 114.115 107.797 111.875 108.167C109.635 108.536 106.979 108.661 104.052 108.276C101.083 107.823 97.9115 106.823 94.75 104.969C91.6615 103.078 88.6511 100.297 86.5782 96.8229C84.4323 93.3854 83.0365 89.0781 82.9219 84.5417C82.8073 80.0052 83.9844 75.4219 86.4323 71.2813C88.8073 67.1771 92.5677 63.7292 96.8907 61.6667C101.177 59.5313 106.281 58.7344 110.99 59.276C115.734 59.8958 120.229 61.776 123.797 64.724C125.615 66.1771 127.188 67.8594 128.464 69.6979C129.745 71.5417 130.766 73.4271 131.531 75.3542C133.104 79.2917 133.5 83.4844 133.182 87.224C132.865 90.9635 131.719 94.2135 130.292 96.9583C128.87 99.6979 127.167 101.75 125.557 103.281C124.771 104.083 123.979 104.698 123.333 105.24C122.688 105.776 122.073 106.203 121.568 106.479C120.589 107.099 120.01 107.417 120.01 107.417C124.563 111.141 130.344 114.01 136.854 115.458C143.359 116.901 150.526 116.958 157.969 115.458C164.297 102.547 165.438 88.0365 161.797 75.0885C159.995 68.651 157.026 62.6563 153.281 57.651C149.495 52.5729 144.771 48.1875 139.604 44.8906C129.156 38.2604 117.047 36.0052 105.917 37.8125C100.339 38.7708 95.0886 40.6823 90.4532 43.3854C85.8854 46.0469 81.9427 49.5 78.7188 53.5938C75.5261 57.5781 73.1302 62.1615 71.6615 66.7135C70.224 71.3385 69.6823 76.0469 69.9063 80.6146C70.2032 85.1458 71.3125 89.6146 73.1823 93.5781C75.0469 97.5365 77.4479 100.927 80.3854 103.75C83.3229 106.568 86.7188 108.854 90.3125 110.286C93.8282 111.755 97.5104 112.484 101.021 112.552C104.526 112.62 108.052 112.021 111.151 110.813C114.214 109.714 116.964 108.031 119.224 105.964Z" fill="white"/>
</g>
</g>
</g>
<mask id="mask6_17_777" style="mask-type:luminance" maskUnits="userSpaceOnUse" x="102" y="72" width="28" height="25">
<path d="M102.667 72.3334H129.333V96.3334H102.667V72.3334Z" fill="white"/>
</mask>
<g mask="url(#mask6_17_777)">
<mask id="mask7_17_777" style="mask-type:luminance" maskUnits="userSpaceOnUse" x="6" y="-30" width="220" height="222">
<path d="M84.3593 191.214L6.50513 47.6355L148.078 -29.1354L225.937 114.443L84.3593 191.214Z" fill="white"/>
</mask>
<g mask="url(#mask7_17_777)">
<mask id="mask8_17_777" style="mask-type:luminance" maskUnits="userSpaceOnUse" x="6" y="-30" width="220" height="222">
<path d="M6.45825 47.5521L84.3124 191.13L225.891 114.359L148.036 -29.2188L6.45825 47.5521Z" fill="white"/>
</mask>
<g mask="url(#mask8_17_777)">
<path d="M107.344 84.0625C107.344 84.0625 107.344 84.0625 107.385 84.1354C107.385 84.1354 107.385 84.1354 107.422 84.2031C107.422 84.2031 107.458 84.0937 107.385 84.1354C107.385 84.1354 107.312 84.1718 107.458 84.0937C107.531 84.0521 107.458 84.0937 107.385 84.1354L107.312 84.1718C107.422 84.2031 107.385 84.1354 107.312 84.1718L107.349 84.2448C107.39 84.3177 107.39 84.3177 107.349 84.2448C107.349 84.2448 107.349 84.2448 107.422 84.2031C107.422 84.2031 107.422 84.2031 107.349 84.2448C107.349 84.2448 107.208 84.3229 107.281 84.2864L107.349 84.2448C107.239 84.2135 107.463 84.276 107.39 84.3177C107.422 84.2031 107.344 84.0625 107.344 84.0625L107.385 84.1354L107.651 84.4583C108.042 84.9948 108.5 85.5 109 86.0729C109.917 87.0781 110.911 88.0416 111.974 88.9635C116.193 92.5885 121.338 95.151 127.135 96.3229C128.833 90.8021 128.208 85.3229 126 81.0781C123.792 76.8333 120.229 74.0729 116.651 73.0104C113.031 71.875 109.547 72.5416 107.198 74.0989C104.812 75.5781 103.599 78.0208 103.557 80.0156C103.51 82.0104 104.672 83.6302 106.052 84.1041C106.39 84.2031 106.797 84.2656 107.167 84.25C107.239 84.2135 107.349 84.2448 107.422 84.2031C107.495 84.1666 107.495 84.1666 107.495 84.1666L107.568 84.125C107.64 84.0885 107.495 84.1666 107.495 84.1666C107.531 84.0521 107.39 84.3177 107.495 84.1666C107.385 84.1354 107.432 84.3906 107.344 84.0625Z" fill="white"/>
</g>
</g>
</g>
<mask id="mask9_17_777" style="mask-type:luminance" maskUnits="userSpaceOnUse" x="106" y="83" width="2" height="2">
<path d="M106.667 83H108V84.3333H106.667V83Z" fill="white"/>
</mask>
<g mask="url(#mask9_17_777)">
<mask id="mask10_17_777" style="mask-type:luminance" maskUnits="userSpaceOnUse" x="6" y="-30" width="220" height="222">
<path d="M84.3593 191.214L6.50513 47.6355L148.078 -29.1354L225.937 114.443L84.3593 191.214Z" fill="white"/>
</mask>
<g mask="url(#mask10_17_777)">
<mask id="mask11_17_777" style="mask-type:luminance" maskUnits="userSpaceOnUse" x="6" y="-30" width="220" height="222">
<path d="M6.45825 47.5521L84.3124 191.13L225.891 114.359L148.036 -29.2188L6.45825 47.5521Z" fill="white"/>
</mask>
<g mask="url(#mask11_17_777)">
<path d="M107.344 84.0625C107.344 84.0625 107.344 84.0625 107.385 84.1354C107.385 84.1354 107.385 84.1354 107.422 84.2031C107.422 84.2031 107.458 84.0938 107.385 84.1354C107.385 84.1354 107.312 84.1719 107.458 84.0938C107.531 84.0521 107.458 84.0938 107.385 84.1354L107.312 84.1719C107.422 84.2031 107.385 84.1354 107.312 84.1719L107.349 84.2448C107.391 84.3177 107.391 84.3177 107.349 84.2448C107.349 84.2448 107.349 84.2448 107.422 84.2031C107.422 84.2031 107.422 84.2031 107.349 84.2448C107.349 84.2448 107.208 84.3229 107.281 84.2865L107.349 84.2448C107.24 84.2135 107.464 84.276 107.391 84.3177C107.422 84.2031 107.344 84.0625 107.344 84.0625C107.422 84.2031 107.422 84.2031 107.422 84.2031C107.422 84.2031 107.281 84.2865 107.349 84.2448C107.495 84.1667 107.495 84.1667 107.495 84.1667C107.464 84.276 107.422 84.2031 107.495 84.1667L107.536 84.2396C107.536 84.2396 107.536 84.2396 107.495 84.1667C107.458 84.0937 107.458 84.0938 107.458 84.0938C107.458 84.0938 107.568 84.125 107.495 84.1667L107.568 84.125C107.641 84.0885 107.495 84.1667 107.495 84.1667C107.531 84.0521 107.391 84.3177 107.495 84.1667C107.385 84.1354 107.432 84.3906 107.344 84.0625Z" fill="white"/>
<path d="M107.344 84.0625C107.344 84.0625 107.344 84.0625 107.385 84.1354C107.385 84.1354 107.385 84.1354 107.422 84.2031C107.422 84.2031 107.458 84.0938 107.385 84.1354C107.385 84.1354 107.312 84.1719 107.458 84.0938C107.531 84.0521 107.458 84.0938 107.385 84.1354L107.312 84.1719C107.422 84.2031 107.385 84.1354 107.312 84.1719L107.349 84.2448C107.391 84.3177 107.391 84.3177 107.349 84.2448C107.349 84.2448 107.349 84.2448 107.422 84.2031C107.422 84.2031 107.422 84.2031 107.349 84.2448C107.349 84.2448 107.208 84.3229 107.281 84.2865L107.349 84.2448C107.24 84.2135 107.464 84.276 107.391 84.3177C107.422 84.2031 107.344 84.0625 107.344 84.0625C107.422 84.2031 107.422 84.2031 107.422 84.2031C107.422 84.2031 107.281 84.2865 107.349 84.2448C107.495 84.1667 107.495 84.1667 107.495 84.1667C107.464 84.276 107.422 84.2031 107.495 84.1667L107.536 84.2396C107.536 84.2396 107.536 84.2396 107.495 84.1667C107.458 84.0937 107.458 84.0938 107.458 84.0938C107.458 84.0938 107.568 84.125 107.495 84.1667L107.568 84.125C107.641 84.0885 107.495 84.1667 107.495 84.1667C107.531 84.0521 107.391 84.3177 107.495 84.1667C107.385 84.1354 107.432 84.3906 107.344 84.0625Z" fill="white"/>
</g>
</g>
</g>
<mask id="mask12_17_777" style="mask-type:luminance" maskUnits="userSpaceOnUse" x="1" y="131" width="237" height="36">
<path d="M1.33337 131.016H237.333V166.297H1.33337V131.016Z" fill="white"/>
</mask>
<g mask="url(#mask12_17_777)">
<path d="M3.35942 165.703C17.8907 158.193 34.8386 156.464 50.948 156.068C68.2917 155.625 85.5886 156.76 102.839 158.339C120.281 159.974 137.677 162 155.167 163.234C163.865 163.828 172.615 164.172 181.359 164.219C189.563 164.271 197.865 164.318 206.068 163.333C214.318 162.344 222.573 160.021 228.896 154.339C234.432 149.349 238.438 141.734 236.901 134.177C236.26 131.016 231.318 131.755 231.318 134.917C231.37 141.635 228.75 147.323 223.563 151.573C217.729 156.365 209.922 158.042 202.656 158.932C186.151 160.859 169.349 160.219 152.797 159.083C119.193 156.708 85.6876 151.224 51.9376 152.412C34.7396 152.953 17.3438 154.932 2.36984 164.026C1.28651 164.667 2.22401 166.297 3.35942 165.703Z" fill="white"/>
</g>
<path d="M9.88536 154.734C24.6093 149.349 39.8281 148.062 55.3958 147.964C56.2343 147.964 56.5312 146.531 55.5937 146.432C40.026 144.109 23.8177 147.812 9.53641 154.089C9.23953 154.24 9.48953 154.88 9.88536 154.734Z" fill="white"/>
<path d="M223.115 163.38C228.797 162.589 234.036 159.875 237.99 155.771C240.016 153.698 241.745 151.323 242.932 148.703C243.922 146.63 245.75 142.922 244.266 140.797C243.573 139.807 242.391 139.661 241.5 140.453C239.818 141.885 240.068 145.146 239.375 147.224C238.583 149.594 237.448 151.818 236.016 153.844C232.802 158.24 228.208 161.453 222.969 162.885C222.62 162.938 222.771 163.432 223.115 163.38Z" fill="white"/>
<path d="M10.0938 168.021C15.5573 166.073 21.2605 164.932 27.0157 164.505C28.2032 164.411 28.2032 162.51 27.0157 162.651C20.9792 163.125 15.2292 164.599 9.61984 166.974C9.04692 167.213 9.47401 168.26 10.0938 168.021Z" fill="white"/>
<mask id="mask13_17_777" style="mask-type:luminance" maskUnits="userSpaceOnUse" x="0" y="152" width="240" height="19">
<path d="M0.682251 152.333H240V170.74H0.682251V152.333Z" fill="white"/>
</mask>
<g mask="url(#mask13_17_777)">
<path d="M235.854 153.573C232.099 159.276 225.495 162.271 219.078 164.031C211.474 166.12 203.583 166.693 195.74 166.641C179.484 166.5 163.135 164.078 146.974 162.365C113.943 158.896 80.7187 155.234 47.4531 155.714C40.0833 155.854 32.6198 156.042 25.302 156.948C8.66663 159.323 2.58329 164.411 2.20308 164.74C1.82288 165.073 1.44267 165.406 1.10933 165.74C0.682251 166.12 1.10933 166.88 1.68225 166.693C8.38017 164.359 14.9895 162.177 22.0208 161.036C29.677 159.797 37.4218 159.562 45.1718 159.417C62.1875 159.083 79.25 159.896 96.2135 161.224C113.042 162.557 129.818 164.458 146.547 166.359C162.995 168.214 179.63 170.823 196.214 170.776C210.667 170.776 230.484 168.922 239.135 155.474C240.464 153.432 237.187 151.578 235.854 153.573Z" fill="white"/>
</g>
<path d="M286.31 66.149L287.206 65.4823C288.357 64.8157 289.17 64.4823 289.644 64.4823C290.696 64.4823 291.831 65.4303 293.04 67.3157C293.79 68.498 294.165 69.4407 294.165 70.149C294.165 70.8573 293.935 71.4511 293.477 71.9198C293.019 72.3938 292.482 72.8157 291.873 73.1907C291.258 73.5657 290.675 73.9198 290.123 74.2532C289.566 74.5865 288.425 75.024 286.706 75.5657C284.982 76.1073 283.316 76.3782 281.706 76.3782C280.107 76.3782 278.487 76.1698 276.852 75.7532C275.211 75.3365 273.519 74.6282 271.769 73.6282C270.029 72.6282 268.467 71.4146 267.081 69.9823C265.706 68.5396 264.566 66.7011 263.665 64.4615C262.774 62.2115 262.331 59.7688 262.331 57.1282C262.331 54.4928 262.769 52.1021 263.644 49.9615C264.519 47.8105 265.633 46.0344 266.998 44.6282C268.373 43.2271 269.941 42.0553 271.706 41.1073C275.008 39.2896 278.336 38.3782 281.685 38.3782C283.279 38.3782 284.899 38.623 286.54 39.1073C288.175 39.5969 289.415 40.0969 290.248 40.6073L291.477 41.3157C292.086 41.6803 292.56 41.9771 292.894 42.2115C293.769 42.9355 294.206 43.748 294.206 44.649C294.206 45.5396 293.852 46.4719 293.144 47.4407C291.821 49.2636 290.644 50.1698 289.602 50.1698C288.987 50.1698 288.128 49.8053 287.019 49.0657C285.602 47.9146 283.706 47.3365 281.331 47.3365C279.133 47.3365 276.977 48.1021 274.852 49.6282C273.836 50.3678 272.987 51.4146 272.31 52.774C271.628 54.123 271.29 55.649 271.29 57.3573C271.29 59.0657 271.628 60.5969 272.31 61.9407C272.987 63.2896 273.852 64.3521 274.894 65.1282C276.961 66.6178 279.107 67.3573 281.331 67.3573C282.383 67.3573 283.373 67.2271 284.29 66.9615C285.217 66.6855 285.894 66.4146 286.31 66.149Z" fill="white"/>
<path d="M314.823 52.0033C315.032 50.1178 316.37 49.1699 318.844 49.1699C320.146 49.1699 321.12 49.2741 321.761 49.4824C322.412 49.6803 322.865 50.0345 323.115 50.5449C323.365 51.0449 323.516 51.4928 323.573 51.8783C323.625 52.2689 323.657 52.8522 323.657 53.6283V71.3574C323.657 72.1387 323.625 72.722 323.573 73.1074C323.516 73.498 323.37 73.9512 323.136 74.4616C322.662 75.3366 321.5 75.7741 319.657 75.7741C317.823 75.7741 316.594 75.5449 315.969 75.0866C315.344 74.6283 314.979 73.9616 314.886 73.0866C313.636 74.8783 311.542 75.7741 308.615 75.7741C305.698 75.7741 302.99 74.4408 300.49 71.7741C297.99 69.1074 296.74 66.0137 296.74 62.4824C296.74 58.9408 297.995 55.847 300.511 53.1908C303.021 50.5397 305.787 49.2116 308.802 49.2116C309.953 49.2116 311 49.4199 311.948 49.8366C312.891 50.2428 313.542 50.623 313.907 50.9824C314.282 51.3314 314.584 51.6699 314.823 52.0033ZM305.615 62.5449C305.615 63.6595 306.052 64.6647 306.927 65.5658C307.802 66.4564 308.865 66.8991 310.115 66.8991C311.365 66.8991 312.396 66.4512 313.219 65.5449C314.052 64.6283 314.469 63.623 314.469 62.5241C314.469 61.4303 314.073 60.4095 313.282 59.4616C312.49 58.5189 311.427 58.0449 310.094 58.0449C308.761 58.0449 307.677 58.5189 306.844 59.4616C306.021 60.4095 305.615 61.4355 305.615 62.5449Z" fill="white"/>
<path d="M345.838 49.4824C346.489 49.6803 347.026 50.0241 347.443 50.5241C347.859 51.0137 348.068 51.7949 348.068 52.8783C348.068 53.9512 347.745 55.1283 347.109 56.4199C346.469 57.7012 345.536 58.3366 344.318 58.3366C343.719 58.3366 343.135 58.2064 342.568 57.9408C342.01 57.6647 341.276 57.5241 340.359 57.5241C339.453 57.5241 338.609 57.8522 337.818 58.5033C337.026 59.1439 336.63 59.9147 336.63 60.8158V71.4616C336.63 72.2428 336.599 72.8262 336.547 73.2116C336.489 73.6022 336.328 74.0553 336.068 74.5658C335.552 75.4408 334.234 75.8783 332.109 75.8783C330.484 75.8783 329.318 75.597 328.609 75.0241C328.068 74.5553 327.76 73.8262 327.693 72.8366C327.693 72.5033 327.693 72.0137 327.693 71.3574V53.5658C327.693 52.8053 327.719 52.2272 327.776 51.8366C327.828 51.4512 327.974 51.0189 328.213 50.5449C328.682 49.6283 329.995 49.1699 332.151 49.1699C334.177 49.1699 335.448 49.5605 335.963 50.3366C336.338 50.8783 336.526 51.4355 336.526 52.0033C336.693 51.7689 336.932 51.4824 337.255 51.1491C337.573 50.8053 338.255 50.347 339.297 49.7741C340.349 49.2064 341.276 48.9199 342.068 48.9199C342.859 48.9199 343.526 48.9616 344.068 49.0449C344.609 49.1283 345.198 49.2741 345.838 49.4824Z" fill="white"/>
<path d="M368.185 52.0033C368.393 50.1178 369.731 49.1699 372.205 49.1699C373.507 49.1699 374.481 49.2741 375.122 49.4824C375.773 49.6803 376.226 50.0345 376.476 50.5449C376.726 51.0449 376.877 51.4928 376.935 51.8783C376.987 52.2689 377.018 52.8522 377.018 53.6283V71.3574C377.018 72.1387 376.987 72.722 376.935 73.1074C376.877 73.498 376.731 73.9512 376.497 74.4616C376.023 75.3366 374.862 75.7741 373.018 75.7741C371.185 75.7741 369.955 75.5449 369.33 75.0866C368.705 74.6283 368.341 73.9616 368.247 73.0866C366.997 74.8783 364.903 75.7741 361.976 75.7741C359.06 75.7741 356.351 74.4408 353.851 71.7741C351.351 69.1074 350.101 66.0137 350.101 62.4824C350.101 58.9408 351.356 55.847 353.872 53.1908C356.382 50.5397 359.148 49.2116 362.164 49.2116C363.315 49.2116 364.362 49.4199 365.31 49.8366C366.252 50.2428 366.903 50.623 367.268 50.9824C367.643 51.3314 367.945 51.6699 368.185 52.0033ZM358.976 62.5449C358.976 63.6595 359.414 64.6647 360.289 65.5658C361.164 66.4564 362.226 66.8991 363.476 66.8991C364.726 66.8991 365.757 66.4512 366.58 65.5449C367.414 64.6283 367.83 63.623 367.83 62.5241C367.83 61.4303 367.435 60.4095 366.643 59.4616C365.851 58.5189 364.789 58.0449 363.455 58.0449C362.122 58.0449 361.039 58.5189 360.205 59.4616C359.382 60.4095 358.976 61.4355 358.976 62.5449Z" fill="white"/>
<path d="M389.429 62.5241C389.429 63.9564 389.898 65.0762 390.845 65.8783C391.788 66.6699 392.788 67.0658 393.846 67.0658C394.913 67.0658 395.913 66.7533 396.846 66.1283C397.773 65.5033 398.523 65.1908 399.096 65.1908C400.106 65.1908 401.346 66.0866 402.804 67.8783C403.58 68.8522 403.971 69.7272 403.971 70.5033C403.971 71.7949 403.038 72.998 401.179 74.1074C399.262 75.4564 396.898 76.1283 394.096 76.1283C390.939 76.1283 387.913 74.998 385.012 72.7324C383.622 71.6491 382.491 70.2064 381.616 68.3991C380.741 66.597 380.304 64.6022 380.304 62.4199C380.304 60.2428 380.741 58.2689 381.616 56.5033C382.491 54.7272 383.622 53.2949 385.012 52.2116C387.814 49.9772 390.809 48.8574 393.991 48.8574C395.267 48.8574 396.512 49.0397 397.721 49.3991C398.939 49.748 399.846 50.097 400.429 50.4408L401.241 50.9408C401.835 51.347 402.309 51.6647 402.658 51.8991C403.533 52.5814 403.971 53.3522 403.971 54.2116C403.971 55.0762 403.616 56.0449 402.908 57.1283C401.684 58.9928 400.517 59.9199 399.408 59.9199C398.767 59.9199 397.856 59.5449 396.679 58.7949C396.064 58.2272 395.189 57.9408 394.054 57.9408C392.929 57.9408 391.872 58.3522 390.887 59.1699C389.913 59.9772 389.429 61.097 389.429 62.5241Z" fill="white"/>
<path d="M406.503 62.5448C406.503 58.4928 407.92 55.149 410.753 52.524C413.597 49.8886 416.842 48.5657 420.482 48.5657C424.133 48.5657 427.362 49.8782 430.17 52.5032C432.972 55.1178 434.378 58.4511 434.378 62.5032C434.378 65.3105 433.649 67.8053 432.191 69.9823C430.743 72.149 428.982 73.7532 426.899 74.7948C424.816 75.8261 422.654 76.3365 420.42 76.3365C418.196 76.3365 416.034 75.7896 413.941 74.6907C411.857 73.5969 410.092 71.9771 408.649 69.8365C407.217 67.6855 406.503 65.2532 406.503 62.5448ZM417.086 66.1698C418.17 67.0032 419.263 67.4198 420.378 67.4198C421.503 67.4198 422.618 66.998 423.732 66.149C424.842 65.3053 425.399 64.0553 425.399 62.399C425.399 60.748 424.868 59.5188 423.816 58.7115C422.774 57.8938 421.638 57.4823 420.42 57.4823C419.211 57.4823 418.076 57.9094 417.024 58.7532C415.982 59.5865 415.461 60.8261 415.461 62.4615C415.461 64.1021 416.003 65.3365 417.086 66.1698Z" fill="white"/>
<path d="M437.658 41.0657C437.658 40.2897 437.684 39.7063 437.742 39.3157C437.794 38.9303 437.94 38.4772 438.179 37.9615C438.648 37.0449 439.961 36.5865 442.117 36.5865C444.184 36.5865 445.471 37.0449 445.971 37.9615C446.247 38.4772 446.408 38.9355 446.45 39.3365C446.502 39.7428 446.533 40.3313 446.533 41.1074V64.5657C446.533 65.7897 446.627 66.5605 446.825 66.8782C447.033 67.2011 447.481 67.3574 448.179 67.3574C448.872 67.3574 449.336 67.3886 449.575 67.4407C449.809 67.498 450.096 67.6438 450.429 67.8782C451.106 68.3105 451.45 69.5032 451.45 71.4615C451.45 73.6022 451.106 74.9095 450.429 75.3782C449.554 75.972 447.461 76.0709 444.158 75.6699C441.544 75.3365 439.851 74.4772 439.075 73.0865C438.127 71.4355 437.658 68.8053 437.658 65.1907V41.0657Z" fill="white"/>
<path d="M263.081 87.1618C263.081 86.3857 263.107 85.8024 263.165 85.4118C263.217 85.0264 263.362 84.5732 263.602 84.0576C264.071 83.141 265.383 82.6826 267.54 82.6826C269.607 82.6826 270.894 83.141 271.394 84.0576C271.67 84.5732 271.831 85.0316 271.873 85.4326C271.925 85.8389 271.956 86.4274 271.956 87.2035V110.662C271.956 111.886 272.05 112.657 272.248 112.974C272.456 113.297 272.904 113.453 273.602 113.453C274.295 113.453 274.758 113.485 274.998 113.537C275.232 113.594 275.519 113.74 275.852 113.974C276.529 114.407 276.873 115.599 276.873 117.558C276.873 119.698 276.529 121.006 275.852 121.474C274.977 122.068 272.883 122.167 269.581 121.766C266.967 121.433 265.274 120.573 264.498 119.183C263.55 117.532 263.081 114.901 263.081 111.287V87.1618Z" fill="white"/>
<path d="M278.902 108.641C278.902 104.589 280.319 101.245 283.152 98.6202C285.996 95.9848 289.241 94.6619 292.881 94.6619C296.532 94.6619 299.761 95.9744 302.569 98.5994C305.371 101.214 306.777 104.547 306.777 108.599C306.777 111.407 306.048 113.901 304.59 116.079C303.142 118.245 301.381 119.849 299.298 120.891C297.215 121.922 295.053 122.433 292.819 122.433C290.595 122.433 288.433 121.886 286.34 120.787C284.256 119.693 282.491 118.073 281.048 115.933C279.616 113.782 278.902 111.349 278.902 108.641ZM289.485 112.266C290.569 113.099 291.663 113.516 292.777 113.516C293.902 113.516 295.017 113.094 296.131 112.245C297.241 111.401 297.798 110.151 297.798 108.495C297.798 106.844 297.267 105.615 296.215 104.808C295.173 103.99 294.038 103.579 292.819 103.579C291.61 103.579 290.475 104.006 289.423 104.849C288.381 105.683 287.86 106.922 287.86 108.558C287.86 110.198 288.402 111.433 289.485 112.266Z" fill="white"/>
<path d="M326.995 118.62C325.703 120.318 323.651 121.162 320.849 121.162C318.057 121.162 315.432 119.87 312.974 117.287C310.526 114.704 309.307 111.693 309.307 108.245C309.307 104.787 310.537 101.761 312.995 99.1619C315.464 96.5681 318.172 95.266 321.12 95.266C322.255 95.266 323.297 95.4848 324.245 95.9119C325.203 96.3285 325.854 96.7192 326.203 97.0785C326.563 97.4275 326.839 97.7556 327.037 98.0577C327.146 97.115 327.495 96.4014 328.078 95.9119C328.672 95.4119 329.63 95.1619 330.953 95.1619C332.271 95.1619 333.229 95.266 333.828 95.4744C334.438 95.6723 334.87 96.016 335.12 96.516C335.38 97.0056 335.537 97.4327 335.578 97.8077C335.63 98.1723 335.662 98.74 335.662 99.516V120.495C335.662 124.381 334.307 127.516 331.599 129.891C328.901 132.276 325.859 133.474 322.474 133.474C319.901 133.474 317.453 132.849 315.12 131.599C312.797 130.349 311.641 129.214 311.641 128.204C311.641 126.881 312.146 125.714 313.162 124.704C313.797 123.995 314.292 123.5 314.641 123.224C315 122.959 315.417 122.829 315.891 122.829C316.359 122.829 316.854 123.037 317.37 123.454C318.979 124.704 320.734 125.329 322.641 125.329C323.917 125.329 324.958 124.818 325.766 123.808C326.583 122.792 326.995 121.573 326.995 120.141V118.62ZM317.974 108.266C317.974 109.365 318.401 110.349 319.266 111.224C320.125 112.099 321.172 112.537 322.412 112.537C323.646 112.537 324.667 112.094 325.474 111.204C326.276 110.318 326.682 109.339 326.682 108.266C326.682 107.198 326.292 106.198 325.516 105.266C324.734 104.339 323.688 103.87 322.37 103.87C321.063 103.87 320 104.329 319.182 105.245C318.375 106.162 317.974 107.172 317.974 108.266Z" fill="white"/>
<path d="M262.665 149.555H272.748C273.133 149.555 273.42 149.607 273.602 149.701C273.779 149.784 273.899 149.924 273.956 150.117C274.024 150.315 274.06 150.57 274.06 150.888C274.06 151.195 274.024 151.445 273.956 151.638C273.899 151.82 273.795 151.945 273.644 152.013C273.435 152.128 273.128 152.18 272.727 152.18H269.269V161.305C269.269 161.586 269.253 161.794 269.227 161.93C269.211 162.055 269.154 162.211 269.06 162.388C268.977 162.57 268.816 162.695 268.581 162.763C268.357 162.836 268.06 162.867 267.685 162.867C267.31 162.867 267.008 162.836 266.79 162.763C266.566 162.695 266.404 162.57 266.31 162.388C266.227 162.211 266.17 162.049 266.144 161.909C266.128 161.773 266.123 161.565 266.123 161.284V152.18H262.644C262.253 152.18 261.967 152.138 261.79 152.055C261.607 151.961 261.482 151.815 261.415 151.617C261.357 151.424 261.331 151.174 261.331 150.867C261.331 150.549 261.357 150.299 261.415 150.117C261.482 149.924 261.586 149.794 261.727 149.721C261.946 149.612 262.258 149.555 262.665 149.555Z" fill="white"/>
<path d="M281.529 153.409C281.763 153.482 281.956 153.607 282.112 153.784C282.263 153.966 282.341 154.253 282.341 154.638C282.341 155.013 282.221 155.44 281.987 155.909C281.763 156.367 281.435 156.596 281.008 156.596C280.784 156.596 280.57 156.55 280.362 156.451C280.164 156.357 279.904 156.305 279.57 156.305C279.247 156.305 278.945 156.425 278.654 156.659C278.372 156.883 278.237 157.154 278.237 157.471V161.284C278.237 161.565 278.227 161.774 278.216 161.909C278.201 162.05 278.143 162.211 278.05 162.388C277.852 162.711 277.383 162.867 276.633 162.867C276.05 162.867 275.633 162.763 275.383 162.555C275.185 162.388 275.076 162.133 275.05 161.784C275.05 161.659 275.05 161.482 275.05 161.242V154.888C275.05 154.612 275.055 154.404 275.07 154.263C275.081 154.128 275.138 153.966 275.237 153.784C275.404 153.466 275.867 153.305 276.633 153.305C277.367 153.305 277.826 153.445 278.008 153.721C278.133 153.919 278.195 154.117 278.195 154.326C278.263 154.242 278.352 154.138 278.466 154.013C278.576 153.888 278.82 153.732 279.195 153.534C279.57 153.326 279.893 153.221 280.175 153.221C280.466 153.221 280.706 153.237 280.904 153.263C281.096 153.294 281.305 153.341 281.529 153.409Z" fill="white"/>
<path d="M289.548 154.326C289.615 153.648 290.095 153.305 290.985 153.305C291.454 153.305 291.803 153.341 292.027 153.409C292.261 153.482 292.423 153.612 292.506 153.805C292.6 153.987 292.657 154.148 292.673 154.284C292.683 154.424 292.694 154.633 292.694 154.909V161.242C292.694 161.534 292.683 161.753 292.673 161.888C292.657 162.029 292.61 162.19 292.527 162.367C292.345 162.674 291.923 162.826 291.256 162.826C290.6 162.826 290.162 162.753 289.944 162.596C289.72 162.43 289.595 162.19 289.569 161.867C289.11 162.508 288.36 162.826 287.319 162.826C286.277 162.826 285.303 162.357 284.402 161.409C283.511 160.451 283.069 159.341 283.069 158.076C283.069 156.815 283.517 155.711 284.423 154.763C285.324 153.805 286.308 153.326 287.381 153.326C287.798 153.326 288.173 153.404 288.506 153.555C288.839 153.695 289.074 153.826 289.214 153.951C289.35 154.076 289.464 154.201 289.548 154.326ZM286.235 158.096C286.235 158.503 286.386 158.862 286.694 159.18C287.011 159.503 287.392 159.659 287.839 159.659C288.298 159.659 288.673 159.503 288.964 159.18C289.267 158.846 289.423 158.487 289.423 158.096C289.423 157.695 289.277 157.326 288.985 156.992C288.704 156.648 288.324 156.471 287.839 156.471C287.365 156.471 286.975 156.648 286.673 156.992C286.381 157.326 286.235 157.695 286.235 158.096Z" fill="white"/>
<path d="M299.463 153.305C300.671 153.305 301.677 153.773 302.484 154.701C303.286 155.617 303.692 156.742 303.692 158.076V161.263C303.692 161.544 303.677 161.753 303.651 161.888C303.635 162.029 303.588 162.19 303.505 162.367C303.338 162.69 302.864 162.846 302.088 162.846C301.224 162.846 300.734 162.628 300.609 162.18C300.536 161.971 300.505 161.659 300.505 161.242V158.055C300.505 157.555 300.359 157.169 300.067 156.888C299.786 156.612 299.406 156.471 298.921 156.471C298.448 156.471 298.057 156.617 297.755 156.909C297.463 157.201 297.317 157.586 297.317 158.055V161.263C297.317 161.544 297.307 161.753 297.296 161.888C297.281 162.029 297.224 162.19 297.13 162.367C296.963 162.69 296.494 162.846 295.734 162.846C294.968 162.846 294.505 162.69 294.338 162.367C294.239 162.19 294.182 162.029 294.171 161.888C294.156 161.753 294.151 161.534 294.151 161.242V154.826C294.151 154.565 294.156 154.362 294.171 154.221C294.182 154.086 294.239 153.93 294.338 153.763C294.515 153.461 294.984 153.305 295.734 153.305C296.484 153.305 296.942 153.445 297.109 153.721C297.234 153.93 297.296 154.18 297.296 154.471C297.338 154.388 297.442 154.273 297.609 154.117C297.776 153.951 297.942 153.82 298.109 153.721C298.51 153.445 298.963 153.305 299.463 153.305Z" fill="white"/>
<path d="M305.206 162.013C304.982 161.878 304.872 161.648 304.872 161.326C304.872 161.008 305.101 160.529 305.56 159.888C305.685 159.68 305.893 159.576 306.185 159.576C306.487 159.576 306.893 159.732 307.393 160.034C307.904 160.326 308.372 160.471 308.789 160.471C309.523 160.471 309.893 160.326 309.893 160.034C309.893 159.815 309.487 159.648 308.685 159.534C307.919 159.424 307.164 159.138 306.414 158.68C306.065 158.461 305.773 158.117 305.539 157.659C305.299 157.19 305.185 156.633 305.185 155.992C305.185 154.076 306.497 153.117 309.122 153.117C309.982 153.117 310.872 153.326 311.789 153.742C312.206 153.94 312.414 154.18 312.414 154.471C312.414 154.763 312.279 155.128 312.018 155.555C311.753 155.971 311.482 156.18 311.206 156.18C311.049 156.18 310.779 156.091 310.393 155.909C310.003 155.716 309.581 155.617 309.122 155.617C308.398 155.617 308.039 155.758 308.039 156.034C308.039 156.398 308.445 156.633 309.268 156.742C310.07 156.826 310.851 157.055 311.601 157.43C311.945 157.596 312.237 157.888 312.476 158.305C312.711 158.721 312.831 159.253 312.831 159.888C312.831 160.513 312.711 161.049 312.476 161.492C312.237 161.924 311.914 162.253 311.497 162.471C310.716 162.846 309.747 163.034 308.581 163.034C307.414 163.034 306.289 162.695 305.206 162.013Z" fill="white"/>
<path d="M314.013 165.471V154.867C314.013 154.591 314.019 154.388 314.034 154.263C314.045 154.128 314.102 153.966 314.201 153.784C314.368 153.466 314.769 153.305 315.409 153.305C316.045 153.305 316.477 153.388 316.701 153.555C316.92 153.711 317.055 153.945 317.097 154.263C317.555 153.638 318.274 153.326 319.263 153.326C320.248 153.326 321.18 153.794 322.055 154.721C322.941 155.654 323.388 156.737 323.388 157.971C323.388 159.211 322.951 160.294 322.076 161.221C321.201 162.154 320.263 162.617 319.263 162.617C318.274 162.617 317.56 162.341 317.118 161.784V165.451C317.118 165.727 317.102 165.93 317.076 166.055C317.06 166.19 317.003 166.346 316.909 166.513C316.826 166.69 316.67 166.815 316.451 166.888C316.243 166.971 315.951 167.013 315.576 167.013C315.201 167.013 314.899 166.971 314.68 166.888C314.456 166.815 314.295 166.701 314.201 166.534C314.102 166.367 314.045 166.211 314.034 166.076C314.019 165.951 314.013 165.747 314.013 165.471ZM317.597 156.93C317.316 157.253 317.18 157.607 317.18 157.992C317.18 158.383 317.316 158.737 317.597 159.055C317.888 159.378 318.253 159.534 318.701 159.534C319.144 159.534 319.519 159.378 319.826 159.055C320.128 158.737 320.284 158.383 320.284 157.992C320.284 157.591 320.138 157.232 319.847 156.909C319.555 156.591 319.17 156.43 318.701 156.43C318.243 156.43 317.873 156.596 317.597 156.93Z" fill="white"/>
<path d="M324.3 158.096C324.3 156.638 324.805 155.445 325.821 154.513C326.831 153.57 327.993 153.096 329.3 153.096C330.602 153.096 331.758 153.57 332.758 154.513C333.769 155.445 334.279 156.633 334.279 158.076C334.279 159.076 334.013 159.971 333.487 160.763C332.972 161.544 332.342 162.117 331.592 162.492C330.852 162.857 330.081 163.034 329.279 163.034C328.487 163.034 327.717 162.841 326.967 162.451C326.217 162.05 325.581 161.466 325.071 160.701C324.555 159.94 324.3 159.07 324.3 158.096ZM328.092 159.409C328.477 159.701 328.868 159.846 329.258 159.846C329.659 159.846 330.06 159.695 330.467 159.388C330.868 159.086 331.071 158.638 331.071 158.055C331.071 157.461 330.883 157.013 330.508 156.721C330.133 156.43 329.722 156.284 329.279 156.284C328.847 156.284 328.446 156.44 328.071 156.742C327.696 157.034 327.508 157.482 327.508 158.076C327.508 158.659 327.701 159.107 328.092 159.409Z" fill="white"/>
<path d="M341.934 153.409C342.168 153.482 342.361 153.607 342.517 153.784C342.668 153.966 342.746 154.253 342.746 154.638C342.746 155.013 342.626 155.44 342.392 155.909C342.168 156.367 341.84 156.596 341.413 156.596C341.189 156.596 340.975 156.55 340.767 156.451C340.569 156.357 340.309 156.305 339.975 156.305C339.652 156.305 339.35 156.425 339.059 156.659C338.777 156.883 338.642 157.154 338.642 157.471V161.284C338.642 161.565 338.632 161.774 338.621 161.909C338.606 162.05 338.548 162.211 338.454 162.388C338.257 162.711 337.788 162.867 337.038 162.867C336.454 162.867 336.038 162.763 335.788 162.555C335.59 162.388 335.481 162.133 335.454 161.784C335.454 161.659 335.454 161.482 335.454 161.242V154.888C335.454 154.612 335.46 154.404 335.475 154.263C335.486 154.128 335.543 153.966 335.642 153.784C335.809 153.466 336.272 153.305 337.038 153.305C337.772 153.305 338.231 153.445 338.413 153.721C338.538 153.919 338.6 154.117 338.6 154.326C338.668 154.242 338.757 154.138 338.871 154.013C338.981 153.888 339.225 153.732 339.6 153.534C339.975 153.326 340.298 153.221 340.579 153.221C340.871 153.221 341.111 153.237 341.309 153.263C341.501 153.294 341.71 153.341 341.934 153.409Z" fill="white"/>
<path d="M349.286 156.513L348.119 156.451V158.951C348.119 159.274 348.166 159.508 348.265 159.659C348.375 159.8 348.567 159.867 348.849 159.867C349.125 159.867 349.338 159.883 349.494 159.909C349.645 159.925 349.807 159.982 349.974 160.076C350.25 160.232 350.39 160.633 350.39 161.284C350.39 162.05 350.224 162.513 349.89 162.68C349.708 162.763 349.546 162.82 349.411 162.846C349.27 162.862 349.067 162.867 348.807 162.867C347.541 162.867 346.583 162.586 345.932 162.013C345.276 161.445 344.953 160.487 344.953 159.138V156.451C344.729 156.482 344.479 156.492 344.203 156.492C343.937 156.492 343.713 156.399 343.536 156.201C343.369 155.992 343.286 155.638 343.286 155.138C343.286 154.638 343.312 154.279 343.369 154.055C343.437 153.836 343.526 153.675 343.64 153.576C343.833 153.425 344.067 153.346 344.349 153.346L344.953 153.409V151.534C344.953 151.258 344.958 151.055 344.974 150.93C345 150.794 345.062 150.649 345.161 150.492C345.312 150.19 345.776 150.034 346.557 150.034C347.375 150.034 347.859 150.258 348.015 150.701C348.083 150.899 348.119 151.211 348.119 151.638V153.409C348.645 153.367 349.041 153.346 349.307 153.346C349.583 153.346 349.791 153.357 349.932 153.367C350.067 153.383 350.229 153.44 350.411 153.534C350.729 153.701 350.89 154.169 350.89 154.93C350.89 155.695 350.724 156.159 350.39 156.326C350.208 156.425 350.046 156.482 349.911 156.492C349.77 156.508 349.562 156.513 349.286 156.513Z" fill="white"/>
<path d="M361.097 156.951C361.097 157.69 360.91 158.237 360.535 158.596C360.17 158.961 359.769 159.138 359.326 159.138H355.035C355.035 159.471 355.228 159.758 355.618 159.992C356.019 160.216 356.42 160.326 356.826 160.326C357.519 160.326 358.066 160.258 358.472 160.117L358.681 160.034C358.957 159.909 359.191 159.846 359.389 159.846C359.774 159.846 360.108 160.117 360.389 160.659C360.556 160.982 360.639 161.258 360.639 161.492C360.639 162.565 359.347 163.096 356.764 163.096C355.873 163.096 355.082 162.94 354.389 162.638C353.691 162.336 353.149 161.925 352.764 161.409C351.998 160.44 351.618 159.346 351.618 158.138C351.618 156.612 352.108 155.388 353.097 154.471C354.082 153.555 355.311 153.096 356.785 153.096C358.462 153.096 359.701 153.695 360.493 154.888C360.894 155.513 361.097 156.201 361.097 156.951ZM357.285 157.471C357.743 157.471 357.972 157.279 357.972 156.888C357.972 156.612 357.858 156.388 357.639 156.221C357.431 156.055 357.129 155.971 356.743 155.971C356.353 155.971 355.962 156.133 355.576 156.451C355.186 156.774 354.993 157.112 354.993 157.471H357.285Z" fill="white"/>
<path d="M376.081 156.951C376.081 157.69 375.893 158.237 375.518 158.596C375.154 158.961 374.752 159.138 374.31 159.138H370.018C370.018 159.471 370.211 159.758 370.601 159.992C371.002 160.216 371.404 160.326 371.81 160.326C372.502 160.326 373.049 160.258 373.456 160.117L373.664 160.034C373.94 159.909 374.174 159.846 374.372 159.846C374.758 159.846 375.091 160.117 375.372 160.659C375.539 160.982 375.622 161.258 375.622 161.492C375.622 162.565 374.331 163.096 371.747 163.096C370.857 163.096 370.065 162.94 369.372 162.638C368.674 162.336 368.133 161.925 367.747 161.409C366.982 160.44 366.601 159.346 366.601 158.138C366.601 156.612 367.091 155.388 368.081 154.471C369.065 153.555 370.294 153.096 371.768 153.096C373.445 153.096 374.685 153.695 375.476 154.888C375.877 155.513 376.081 156.201 376.081 156.951ZM372.268 157.471C372.726 157.471 372.956 157.279 372.956 156.888C372.956 156.612 372.841 156.388 372.622 156.221C372.414 156.055 372.112 155.971 371.726 155.971C371.336 155.971 370.945 156.133 370.56 156.451C370.169 156.774 369.976 157.112 369.976 157.471H372.268Z" fill="white"/>
<path d="M385.064 160.18H390.001C390.402 160.18 390.694 160.232 390.876 160.326C391.054 160.409 391.173 160.55 391.231 160.742C391.298 160.94 391.335 161.195 391.335 161.513C391.335 161.836 391.298 162.091 391.231 162.284C391.173 162.482 391.069 162.612 390.918 162.68C390.694 162.805 390.382 162.867 389.981 162.867H383.439C382.606 162.867 382.111 162.638 381.96 162.18C381.887 161.987 381.856 161.675 381.856 161.242V151.159C381.856 150.883 381.861 150.675 381.876 150.534C381.887 150.398 381.944 150.237 382.043 150.055C382.22 149.737 382.694 149.576 383.46 149.576C384.304 149.576 384.814 149.8 384.981 150.242C385.033 150.451 385.064 150.763 385.064 151.18V160.18Z" fill="white"/>
<path d="M392.233 158.096C392.233 156.638 392.738 155.445 393.753 154.513C394.764 153.57 395.925 153.096 397.233 153.096C398.535 153.096 399.691 153.57 400.691 154.513C401.701 155.445 402.212 156.633 402.212 158.076C402.212 159.076 401.946 159.971 401.42 160.763C400.905 161.544 400.274 162.117 399.524 162.492C398.785 162.857 398.014 163.034 397.212 163.034C396.42 163.034 395.649 162.841 394.899 162.451C394.149 162.05 393.514 161.466 393.003 160.701C392.488 159.94 392.233 159.07 392.233 158.096ZM396.024 159.409C396.41 159.701 396.8 159.846 397.191 159.846C397.592 159.846 397.993 159.695 398.399 159.388C398.8 159.086 399.003 158.638 399.003 158.055C399.003 157.461 398.816 157.013 398.441 156.721C398.066 156.43 397.655 156.284 397.212 156.284C396.78 156.284 396.378 156.44 396.003 156.742C395.628 157.034 395.441 157.482 395.441 158.076C395.441 158.659 395.634 159.107 396.024 159.409Z" fill="white"/>
<path d="M409.45 161.68C408.991 162.279 408.252 162.576 407.241 162.576C406.241 162.576 405.304 162.117 404.429 161.201C403.554 160.273 403.116 159.19 403.116 157.951C403.116 156.716 403.554 155.633 404.429 154.701C405.314 153.773 406.288 153.305 407.346 153.305C407.747 153.305 408.116 153.383 408.45 153.534C408.794 153.69 409.033 153.826 409.158 153.951C409.283 154.076 409.387 154.195 409.471 154.305C409.497 153.961 409.616 153.701 409.825 153.534C410.044 153.357 410.392 153.263 410.866 153.263C411.335 153.263 411.679 153.305 411.887 153.388C412.106 153.461 412.262 153.586 412.346 153.763C412.439 153.93 412.497 154.086 412.512 154.221C412.538 154.346 412.554 154.55 412.554 154.826V162.346C412.554 163.732 412.064 164.852 411.096 165.701C410.122 166.56 409.033 166.992 407.825 166.992C406.908 166.992 406.033 166.763 405.2 166.305C404.366 165.857 403.95 165.456 403.95 165.096C403.95 164.622 404.127 164.206 404.491 163.846C404.726 163.596 404.908 163.419 405.033 163.326C405.158 163.227 405.304 163.18 405.471 163.18C405.637 163.18 405.809 163.247 405.991 163.388C406.575 163.831 407.205 164.055 407.887 164.055C408.346 164.055 408.721 163.872 409.012 163.513C409.304 163.148 409.45 162.721 409.45 162.221V161.68ZM406.221 157.971C406.221 158.362 406.372 158.716 406.679 159.034C406.981 159.341 407.356 159.492 407.804 159.492C408.247 159.492 408.616 159.336 408.908 159.013C409.2 158.695 409.346 158.346 409.346 157.971C409.346 157.586 409.2 157.221 408.908 156.888C408.627 156.555 408.252 156.388 407.783 156.388C407.325 156.388 406.95 156.555 406.658 156.888C406.366 157.211 406.221 157.57 406.221 157.971Z" fill="white"/>
<path d="M413.999 154.909C413.999 154.633 414.004 154.425 414.02 154.284C414.03 154.148 414.088 153.982 414.187 153.784C414.353 153.482 414.817 153.326 415.582 153.326C416.166 153.326 416.582 153.43 416.832 153.638C417.041 153.805 417.145 154.065 417.145 154.409C417.155 154.534 417.166 154.711 417.166 154.93V161.284C417.166 161.565 417.155 161.773 417.145 161.909C417.129 162.05 417.072 162.211 416.978 162.388C416.812 162.711 416.343 162.867 415.582 162.867C414.817 162.867 414.353 162.701 414.187 162.367C414.088 162.19 414.03 162.034 414.02 161.909C414.004 161.773 413.999 161.555 413.999 161.263V154.909ZM415.145 152.409C415.145 152.409 414.963 152.451 414.603 152.534C414.228 152.534 413.926 152.18 413.707 151.471C413.608 151.18 413.562 150.93 413.562 150.721C413.562 150.513 413.593 150.362 413.666 150.263C413.791 150.096 414.009 149.966 414.332 149.867L417.332 148.951C417.65 148.867 417.832 148.826 417.874 148.826C418.233 148.826 418.525 149.18 418.749 149.888C418.843 150.18 418.895 150.43 418.895 150.638C418.895 150.836 418.858 150.987 418.791 151.096C418.666 151.253 418.442 151.378 418.124 151.471L415.145 152.409Z" fill="white"/>
<path d="M418.687 162.013C418.463 161.878 418.354 161.648 418.354 161.326C418.354 161.008 418.583 160.529 419.041 159.888C419.166 159.68 419.375 159.576 419.666 159.576C419.968 159.576 420.375 159.732 420.875 160.034C421.385 160.326 421.854 160.471 422.27 160.471C423.005 160.471 423.375 160.326 423.375 160.034C423.375 159.815 422.968 159.648 422.166 159.534C421.401 159.424 420.645 159.138 419.895 158.68C419.546 158.461 419.255 158.117 419.02 157.659C418.781 157.19 418.666 156.633 418.666 155.992C418.666 154.076 419.979 153.117 422.604 153.117C423.463 153.117 424.354 153.326 425.27 153.742C425.687 153.94 425.895 154.18 425.895 154.471C425.895 154.763 425.76 155.128 425.5 155.555C425.234 155.971 424.963 156.18 424.687 156.18C424.531 156.18 424.26 156.091 423.875 155.909C423.484 155.716 423.062 155.617 422.604 155.617C421.88 155.617 421.52 155.758 421.52 156.034C421.52 156.398 421.927 156.633 422.75 156.742C423.552 156.826 424.333 157.055 425.083 157.43C425.427 157.596 425.718 157.888 425.958 158.305C426.192 158.721 426.312 159.253 426.312 159.888C426.312 160.513 426.192 161.049 425.958 161.492C425.718 161.924 425.395 162.253 424.979 162.471C424.198 162.846 423.229 163.034 422.062 163.034C420.895 163.034 419.77 162.695 418.687 162.013Z" fill="white"/>
<path d="M433.037 156.513L431.87 156.451V158.951C431.87 159.274 431.917 159.508 432.016 159.659C432.125 159.8 432.318 159.867 432.599 159.867C432.875 159.867 433.089 159.883 433.245 159.909C433.396 159.925 433.557 159.982 433.724 160.076C434 160.232 434.141 160.633 434.141 161.284C434.141 162.05 433.974 162.513 433.641 162.68C433.458 162.763 433.297 162.82 433.162 162.846C433.021 162.862 432.818 162.867 432.557 162.867C431.292 162.867 430.333 162.586 429.682 162.013C429.026 161.445 428.703 160.487 428.703 159.138V156.451C428.479 156.482 428.229 156.492 427.953 156.492C427.688 156.492 427.464 156.399 427.287 156.201C427.12 155.992 427.037 155.638 427.037 155.138C427.037 154.638 427.063 154.279 427.12 154.055C427.188 153.836 427.276 153.675 427.391 153.576C427.583 153.425 427.818 153.346 428.099 153.346L428.703 153.409V151.534C428.703 151.258 428.708 151.055 428.724 150.93C428.75 150.794 428.813 150.649 428.912 150.492C429.063 150.19 429.526 150.034 430.307 150.034C431.125 150.034 431.61 150.258 431.766 150.701C431.833 150.899 431.87 151.211 431.87 151.638V153.409C432.396 153.367 432.792 153.346 433.057 153.346C433.333 153.346 433.542 153.357 433.682 153.367C433.818 153.383 433.979 153.44 434.162 153.534C434.479 153.701 434.641 154.169 434.641 154.93C434.641 155.695 434.474 156.159 434.141 156.326C433.958 156.425 433.797 156.482 433.662 156.492C433.521 156.508 433.313 156.513 433.037 156.513Z" fill="white"/>
<path d="M435.64 154.909C435.64 154.633 435.645 154.425 435.66 154.284C435.671 154.149 435.728 153.982 435.827 153.784C435.994 153.482 436.457 153.326 437.223 153.326C437.806 153.326 438.223 153.43 438.473 153.638C438.681 153.805 438.785 154.065 438.785 154.409C438.796 154.534 438.806 154.711 438.806 154.93V161.284C438.806 161.565 438.796 161.774 438.785 161.909C438.77 162.05 438.712 162.211 438.619 162.388C438.452 162.711 437.983 162.867 437.223 162.867C436.457 162.867 435.994 162.701 435.827 162.367C435.728 162.19 435.671 162.034 435.66 161.909C435.645 161.774 435.64 161.555 435.64 161.263V154.909ZM438.619 151.534C438.535 151.716 438.374 151.841 438.14 151.909C437.9 151.982 437.598 152.013 437.223 152.013C436.848 152.013 436.541 151.982 436.306 151.909C436.082 151.841 435.921 151.716 435.827 151.534C435.728 151.357 435.671 151.195 435.66 151.055C435.645 150.919 435.64 150.711 435.64 150.43C435.64 150.138 435.645 149.925 435.66 149.784C435.671 149.649 435.728 149.492 435.827 149.326C435.994 149.008 436.457 148.846 437.223 148.846C437.983 148.846 438.452 149.008 438.619 149.326C438.712 149.508 438.77 149.669 438.785 149.805C438.796 149.945 438.806 150.154 438.806 150.43C438.806 150.711 438.796 150.919 438.785 151.055C438.77 151.195 438.712 151.357 438.619 151.534Z" fill="white"/>
<path d="M443.265 158.096C443.265 158.612 443.432 159.008 443.765 159.284C444.099 159.565 444.453 159.701 444.828 159.701C445.213 159.701 445.578 159.591 445.911 159.367C446.244 159.148 446.515 159.034 446.724 159.034C447.083 159.034 447.526 159.357 448.057 159.992C448.333 160.357 448.474 160.675 448.474 160.951C448.474 161.409 448.14 161.841 447.474 162.242C446.776 162.716 445.932 162.951 444.932 162.951C443.807 162.951 442.724 162.55 441.682 161.742C441.182 161.357 440.77 160.841 440.453 160.201C440.145 159.55 439.994 158.836 439.994 158.055C439.994 157.279 440.145 156.57 440.453 155.93C440.77 155.294 441.182 154.779 441.682 154.388C442.682 153.596 443.75 153.201 444.89 153.201C445.349 153.201 445.791 153.263 446.224 153.388C446.666 153.513 446.994 153.638 447.203 153.763L447.474 153.93C447.692 154.086 447.869 154.201 447.994 154.284C448.312 154.523 448.474 154.8 448.474 155.117C448.474 155.425 448.338 155.773 448.078 156.159C447.645 156.826 447.229 157.159 446.828 157.159C446.604 157.159 446.276 157.023 445.849 156.742C445.625 156.55 445.312 156.451 444.911 156.451C444.505 156.451 444.13 156.596 443.786 156.888C443.437 157.169 443.265 157.57 443.265 158.096Z" fill="white"/>
<path d="M455.852 154.326C455.919 153.648 456.399 153.305 457.289 153.305C457.758 153.305 458.107 153.341 458.331 153.409C458.565 153.482 458.727 153.612 458.81 153.805C458.904 153.987 458.961 154.148 458.977 154.284C458.987 154.424 458.998 154.633 458.998 154.909V161.242C458.998 161.534 458.987 161.753 458.977 161.888C458.961 162.029 458.914 162.19 458.831 162.367C458.649 162.674 458.227 162.826 457.56 162.826C456.904 162.826 456.466 162.753 456.248 162.596C456.024 162.43 455.899 162.19 455.873 161.867C455.414 162.508 454.664 162.826 453.623 162.826C452.581 162.826 451.607 162.357 450.706 161.409C449.815 160.451 449.373 159.341 449.373 158.076C449.373 156.815 449.82 155.711 450.727 154.763C451.628 153.805 452.612 153.326 453.685 153.326C454.102 153.326 454.477 153.404 454.81 153.555C455.143 153.695 455.378 153.826 455.518 153.951C455.654 154.076 455.768 154.201 455.852 154.326ZM452.539 158.096C452.539 158.503 452.69 158.862 452.998 159.18C453.315 159.503 453.695 159.659 454.143 159.659C454.602 159.659 454.977 159.503 455.268 159.18C455.57 158.846 455.727 158.487 455.727 158.096C455.727 157.695 455.581 157.326 455.289 156.992C455.008 156.648 454.628 156.471 454.143 156.471C453.669 156.471 453.279 156.648 452.977 156.992C452.685 157.326 452.539 157.695 452.539 158.096Z" fill="white"/>
</svg>
